<svg width="1200" height="360" viewBox="0 0 1200 360" fill="none" xmlns="http://www.w3.org/2000/svg" role="img" aria-labelledby="title desc">
  <title id="title">SalesBoost</title>
  <desc id="desc">Global B2B Sales and Trade Document Automation</desc>
  <defs>
    <linearGradient id="bg" x1="0" y1="0" x2="1200" y2="360" gradientUnits="userSpaceOnUse">
      <stop offset="0" stop-color="#0F172A"/>
      <stop offset="0.48" stop-color="#1D4ED8"/>
      <stop offset="1" stop-color="#14B8A6"/>
    </linearGradient>
    <linearGradient id="line" x1="145" y1="105" x2="1030" y2="250" gradientUnits="userSpaceOnUse">
      <stop stop-color="#93C5FD"/>
      <stop offset="0.5" stop-color="#FFFFFF"/>
      <stop offset="1" stop-color="#A7F3D0"/>
    </linearGradient>
    <filter id="shadow" x="-20%" y="-20%" width="140%" height="140%" color-interpolation-filters="sRGB">
      <feDropShadow dx="0" dy="18" stdDeviation="24" flood-color="#020617" flood-opacity="0.35"/>
    </filter>
    <pattern id="grid" width="48" height="48" patternUnits="userSpaceOnUse">
      <path d="M48 0H0V48" stroke="#FFFFFF" stroke-opacity="0.09" stroke-width="1"/>
    </pattern>
  </defs>

  <rect width="1200" height="360" rx="34" fill="url(#bg)"/>
  <rect width="1200" height="360" rx="34" fill="url(#grid)"/>

  <path d="M-15 284C111 228 203 238 324 276C455 317 565 326 698 260C817 201 950 164 1215 221V360H-15V284Z" fill="#FFFFFF" fill-opacity="0.11"/>
  <path d="M-15 304C125 260 247 265 371 300C530 344 665 314 797 264C938 210 1054 214 1215 256V360H-15V304Z" fill="#FFFFFF" fill-opacity="0.18"/>

  <g filter="url(#shadow)">
    <rect x="92" y="78" width="1016" height="204" rx="30" fill="#0F172A" fill-opacity="0.34" stroke="#FFFFFF" stroke-opacity="0.28"/>
  </g>

  <circle cx="184" cy="133" r="13" fill="#22D3EE"/>
  <circle cx="226" cy="133" r="13" fill="#60A5FA"/>
  <circle cx="268" cy="133" r="13" fill="#34D399"/>

  <text x="600" y="174" text-anchor="middle" fill="#FFFFFF" font-family="Arial, Helvetica, sans-serif" font-size="76" font-weight="800" letter-spacing="1.5">
    SalesBoost
  </text>
  <text x="600" y="220" text-anchor="middle" fill="#DBEAFE" font-family="Arial, Helvetica, sans-serif" font-size="25" font-weight="700">
    Global B2B Sales &amp; Trade Document Automation
  </text>

  <g stroke="url(#line)" stroke-width="4" stroke-linecap="round" stroke-linejoin="round" opacity="0.88">
    <path d="M166 255H279L332 210L388 244H495"/>
    <path d="M706 244H814L864 205L914 235H1034"/>
  </g>

  <g fill="#FFFFFF" fill-opacity="0.95" font-family="Arial, Helvetica, sans-serif" font-size="18" font-weight="700">
    <text x="154" y="101">PI</text>
    <text x="193" y="101">PO</text>
    <text x="233" y="101">CI</text>
    <text x="272" y="101">PL</text>
    <text x="845" y="101">MSA</text>
    <text x="901" y="101">EKS</text>
    <text x="957" y="101">PDF</text>
  </g>
</svg>
